<?xml version="1.0" standalone="no"?>
<!DOCTYPE svg PUBLIC "-//W3C//DTD SVG 20010904//EN"
 "http://www.w3.org/TR/2001/REC-SVG-20010904/DTD/svg10.dtd">
<svg version="1.0" xmlns="http://www.w3.org/2000/svg"
 width="686.000000pt" height="654.000000pt" viewBox="0 0 686.000000 654.000000"
 preserveAspectRatio="xMidYMid meet">

<g transform="translate(0.000000,654.000000) scale(0.100000,-0.100000)"
fill="#000000" stroke="none">
<path d="M0 3270 l0 -3270 3430 0 3430 0 0 3270 0 3270 -3430 0 -3430 0 0
-3270z m3745 3164 c514 -54 1064 -256 1550 -569 381 -245 708 -620 973 -1116
143 -267 270 -691 324 -1074 17 -122 17 -552 0 -675 -68 -487 -242 -914 -544
-1338 -103 -144 -154 -200 -80 -87 340 516 506 984 544 1537 18 265 -14 630
-78 898 -40 171 -74 267 -74 211 0 -33 -30 -161 -38 -161 -4 0 -22 37 -41 83
-49 117 -173 366 -239 477 -263 449 -584 777 -1035 1056 -491 304 -1119 492
-1742 520 -321 14 -727 -49 -1031 -161 -152 -56 -425 -194 -561 -284 -68 -44
-123 -78 -123 -76 0 7 150 119 245 181 506 337 1029 479 1641 445 284 -15 480
-46 744 -116 589 -157 1085 -426 1504 -815 l60 -55 -45 54 c-63 76 -280 275
-391 359 -290 218 -785 466 -1118 561 -300 85 -721 127 -1030 102 -647 -53
-1206 -256 -1723 -626 -147 -105 -144 -94 6 18 537 402 1136 620 1842 671 83
6 311 -4 460 -20z m-2435 -758 c0 -2 -8 -10 -17 -17 -16 -13 -17 -12 -4 4 13
16 21 21 21 13z m-236 -468 c-4 -7 -37 -56 -74 -108 -208 -296 -330 -532 -438
-845 -92 -264 -146 -644 -146 -1015 0 -340 32 -556 124 -830 124 -371 423
-768 840 -1116 96 -80 182 -139 350 -241 559 -338 960 -509 1283 -548 26 -4
47 -11 47 -17 0 -5 -16 -26 -35 -45 -34 -34 -37 -35 -88 -29 -107 15 -375 102
-563 184 -247 108 -626 340 -904 553 -205 157 -242 190 -413 360 -92 92 -167
165 -167 163 0 -39 293 -390 446 -535 176 -165 453 -350 699 -465 349 -163
725 -286 990 -325 164 -24 630 -5 915 37 254 37 612 119 761 174 171 63 438
218 684 396 46 33 47 33 15 5 -155 -140 -427 -326 -617 -420 -247 -123 -673
-229 -1103 -275 -488 -52 -753 -38 -1109 56 -291 77 -654 233 -909 392 -264
165 -556 419 -720 628 -185 236 -379 594 -469 868 -50 151 -203 679 -227 782
-50 215 -63 412 -42 623 41 423 145 790 317 1123 66 128 192 332 205 332 3 0
-1 -11 -10 -24 -174 -266 -310 -598 -400 -976 -61 -255 -83 -495 -66 -718 11
-132 44 -329 58 -344 4 -4 7 97 7 225 1 306 35 554 111 803 127 422 306 752
623 1151 27 34 38 43 25 21z m1836 -508 c0 -6 68 -10 183 -11 149 -1 171 -3
122 -10 -33 -5 -115 -8 -183 -7 -121 3 -122 3 -122 -19 0 -19 6 -23 30 -23 23
0 30 -4 30 -20 0 -19 7 -20 139 -20 111 0 141 3 151 15 10 12 40 15 150 15
110 0 140 -3 150 -15 10 -12 40 -15 152 -15 127 0 139 2 136 18 -2 12 5 18 22
21 24 3 39 16 40 34 0 4 -80 7 -177 7 -119 0 -173 4 -163 10 8 5 88 10 177 10
120 0 163 3 166 13 4 10 7 10 18 0 9 -9 63 -13 189 -14 122 -1 161 -4 130 -10
-25 -4 -105 -8 -177 -8 -126 -1 -133 -2 -133 -21 0 -16 7 -20 30 -20 37 0 39
-23 10 -87 -22 -49 -59 -66 -89 -39 -10 9 -24 16 -31 16 -13 0 -303 -67 -330
-76 -9 -3 4 -16 37 -34 61 -35 77 -59 117 -182 l31 -93 38 -3 c29 -3 37 -7 37
-23 0 -16 -7 -19 -43 -19 -58 0 -71 16 -107 131 -32 103 -53 131 -127 168 -50
25 -53 25 -53 6 0 -16 -1 -17 -45 -20 -39 -2 -55 4 -55 21 0 19 -2 18 -70 -16
-67 -34 -76 -46 -114 -170 -34 -105 -46 -120 -103 -120 -36 0 -43 3 -43 19 0
16 8 20 38 23 l37 3 35 107 c39 118 54 140 119 173 l45 22 -35 11 c-19 6 -98
25 -176 43 -137 32 -143 32 -162 15 -42 -38 -98 4 -108 82 -6 42 -5 42 26 42
24 0 31 4 31 20 0 19 -7 20 -177 20 -119 0 -173 4 -163 10 8 5 88 10 178 10
101 0 162 4 162 10 0 6 7 10 15 10 8 0 15 -4 15 -10z m-1580 -615 l0 -25 -145
0 -145 0 0 25 0 25 145 0 145 0 0 -25z m-450 -105 l0 -50 -80 0 c-74 0 -81 2
-96 25 -15 23 -15 27 0 50 15 23 22 25 96 25 l80 0 0 -50z m590 -40 l0 -90
-280 0 -280 0 0 90 0 90 280 0 280 0 0 -90z m198 78 c17 -17 15 -54 -4 -72
-11 -12 -36 -16 -90 -16 l-74 0 0 50 0 50 78 0 c47 0 83 -5 90 -12z m4709
-125 c-8 -8 -45 62 -51 97 -5 29 0 23 25 -29 16 -35 28 -65 26 -68z m-3830 86
c134 -19 264 -78 356 -164 21 -19 41 -35 44 -35 3 0 30 23 59 50 64 60 151
104 252 125 103 21 294 19 407 -4 86 -18 239 -74 250 -91 4 -7 -117 -319 -131
-339 -2 -2 -22 6 -46 18 -95 45 -163 63 -264 68 -104 6 -144 -3 -144 -33 0
-20 33 -31 175 -61 146 -30 234 -59 300 -101 l49 -31 17 86 c53 260 243 441
517 494 99 19 291 7 378 -24 125 -44 212 -100 279 -182 l35 -44 -131 -118
c-72 -65 -137 -122 -144 -128 -10 -7 -27 4 -63 42 -179 187 -449 73 -429 -180
13 -150 92 -228 232 -229 78 0 123 19 189 82 29 27 56 50 60 50 9 0 286 -243
286 -251 0 -13 -122 -125 -171 -155 -204 -129 -503 -137 -727 -19 -76 40 -165
114 -203 169 -13 20 -26 36 -29 36 -3 0 -13 -21 -24 -46 -41 -101 -175 -197
-326 -235 -197 -49 -515 -11 -688 81 l-58 31 -77 -40 c-117 -59 -197 -76 -357
-75 -110 0 -148 4 -204 22 -226 72 -383 230 -441 442 -24 88 -24 244 0 330 90
325 402 510 772 459z m3199 -124 c25 -8 36 -51 55 -202 7 -57 16 -103 21 -103
4 0 8 50 8 110 0 67 4 110 10 110 6 0 10 16 10 35 0 19 4 35 9 35 11 0 21 -86
21 -192 l0 -87 58 -5 c129 -13 292 -37 316 -46 19 -7 29 -24 45 -76 30 -95 31
-92 -46 -92 -79 1 -124 -16 -170 -64 -43 -45 -63 -96 -63 -163 0 -40 -4 -55
-14 -55 -7 0 -16 14 -19 30 -6 28 -9 30 -52 30 -41 0 -45 -2 -45 -24 0 -29
-28 -36 -141 -36 -92 0 -94 3 -90 117 4 97 -18 159 -77 222 -61 65 -127 94
-212 95 -79 0 -127 -15 -185 -60 -43 -33 -75 -36 -75 -9 0 25 87 83 161 108
13 4 18 29 24 119 5 62 9 134 9 160 1 46 2 47 36 52 50 6 381 -1 406 -9z
m-4006 -20 c0 -25 -23 -35 -35 -15 -10 16 2 40 20 40 9 0 15 -9 15 -25z m-320
-22 c0 -5 -33 -29 -72 -55 l-71 -48 -93 0 -94 0 -70 51 c-38 28 -70 53 -70 55
0 2 106 4 235 4 129 0 235 -3 235 -7z m-700 -77 c0 -3 -4 -8 -10 -11 -5 -3
-10 -1 -10 4 0 6 5 11 10 11 6 0 10 -2 10 -4z m785 -61 c0 -13 -8 -21 -22 -23
-17 -3 -23 2 -23 16 0 10 3 22 7 26 13 13 38 1 38 -19z m-227 -20 c2 -24 -4
-34 -31 -52 -18 -13 -47 -23 -64 -23 -53 0 -115 75 -86 104 4 4 46 5 93 4 l85
-3 3 -30z m396 -17 c8 -13 8 -23 0 -35 -16 -26 -51 -28 -64 -4 -25 47 36 83
64 39z m-706 -95 c4 -25 -22 -37 -38 -17 -10 11 -10 17 0 29 17 20 34 14 38
-12z m232 -18 l0 -25 150 0 c147 0 152 -1 175 -25 30 -29 32 -58 5 -85 -18
-18 -33 -20 -185 -20 -103 0 -165 4 -165 10 0 6 60 10 159 10 171 0 186 4 179
52 -3 23 -4 23 -170 26 l-168 2 0 40 c0 22 5 40 10 40 6 0 10 -11 10 -25z
m4223 -60 c11 -7 25 -11 33 -8 15 6 94 -36 94 -51 0 -5 16 -24 35 -42 28 -25
35 -39 35 -69 0 -20 7 -43 15 -51 19 -20 19 -52 -1 -99 -8 -20 -13 -39 -10
-42 8 -8 -23 -63 -35 -63 -16 0 -36 -24 -32 -36 6 -19 -47 -54 -82 -54 -20 0
-35 -6 -39 -15 -6 -18 -71 -21 -82 -4 -4 6 -19 9 -36 5 -42 -8 -72 1 -83 27
-6 13 -17 21 -28 19 -24 -4 -47 15 -47 39 0 10 -14 32 -30 49 -28 29 -30 36
-24 76 4 30 3 44 -5 44 -6 0 -11 16 -11 35 0 24 5 35 15 35 15 0 19 15 15 57
-2 25 40 73 63 73 8 0 14 7 13 16 -1 22 51 52 92 53 17 1 32 6 32 11 0 15 82
11 103 -5z m-4679 -36 c60 -47 7 -140 -61 -107 -38 19 -49 41 -37 75 8 23 44
52 65 53 4 0 18 -9 33 -21z m421 -79 c3 -5 35 -10 70 -10 58 0 68 -3 101 -32
49 -43 74 -100 74 -168 0 -71 -26 -126 -80 -173 -49 -42 -85 -51 -170 -45 -79
6 -133 43 -173 118 -25 48 -28 63 -24 113 6 65 41 134 84 163 59 40 106 54
118 34z m5135 -32 c32 -6 70 -30 70 -44 0 -6 9 -18 20 -25 11 -8 26 -36 33
-64 16 -63 0 -149 -32 -172 -12 -8 -21 -20 -21 -28 0 -17 -36 -39 -49 -30 -5
3 -16 -2 -24 -10 -17 -17 -54 -19 -77 -5 -9 6 -17 5 -22 -3 -5 -8 -15 -5 -35
11 -15 12 -38 27 -50 32 -13 5 -23 16 -23 24 0 9 -10 24 -21 35 -16 15 -20 27
-16 49 3 17 1 34 -6 41 -9 9 -8 17 2 33 7 12 14 32 16 46 3 31 64 92 107 108
31 12 67 12 128 2z m-5495 -232 c0 -22 -14 -29 -34 -17 -19 12 -6 43 16 39 10
-2 18 -12 18 -22z m2780 -517 c19 -17 35 -35 35 -40 0 -5 -33 -9 -73 -9 -41 0
-109 -9 -152 -20 -43 -11 -82 -20 -87 -20 -13 0 -9 27 6 39 18 15 194 80 218
81 10 0 33 -14 53 -31z m94 -89 c106 -29 108 -31 88 -72 -41 -86 -42 -191 -2
-267 8 -17 15 -35 15 -40 0 -17 -130 -52 -215 -57 -141 -10 -341 57 -482 160
l-62 46 -50 -50 c-28 -28 -54 -50 -58 -50 -4 0 -8 56 -8 125 0 69 4 125 9 125
12 0 92 -81 98 -100 4 -13 9 -12 29 5 61 52 183 119 279 154 118 43 247 51
359 21z m177 -75 c113 -87 128 -136 61 -212 -28 -32 -97 -83 -112 -83 -18 0
-48 100 -48 160 -1 69 30 160 54 160 7 0 27 -11 45 -25z m-703 -267 c18 -13
34 -24 37 -26 10 -7 -26 -22 -53 -22 -28 0 -50 31 -40 58 7 17 19 15 56 -10z
m569 -165 c-160 -2 -424 -2 -585 0 -160 1 -29 2 293 2 322 0 453 -1 292 -2z
m158 -45 c0 -8 -56 -25 -112 -34 -21 -4 -43 -13 -49 -20 -17 -21 -567 -21
-575 0 -3 7 -24 16 -47 20 -57 8 -117 25 -117 34 0 4 202 7 450 7 247 0 450
-3 450 -7z"/>
<path d="M1361 3990 c-19 -11 -9 -45 14 -45 13 0 21 8 23 21 3 23 -17 37 -37
24z"/>
<path d="M1013 3968 c3 -10 41 -13 147 -13 106 0 144 3 148 13 3 9 -31 12
-148 12 -117 0 -151 -3 -147 -12z"/>
<path d="M2786 3542 l-90 -80 -44 50 c-55 60 -108 89 -181 95 -85 8 -138 -11
-192 -67 -55 -56 -74 -119 -67 -214 6 -75 35 -134 85 -175 44 -37 89 -51 158
-51 67 0 129 30 192 92 l52 51 78 -69 c42 -38 93 -82 111 -99 19 -16 39 -30
45 -30 5 0 23 29 38 65 15 36 31 65 36 65 4 0 42 -17 83 -37 96 -47 261 -82
339 -73 67 8 81 14 81 31 0 21 -30 32 -171 64 -158 36 -205 52 -282 93 -111
58 -165 146 -175 284 l-7 85 -89 -80z"/>
<path d="M5337 3813 c-3 -5 -8 -44 -11 -88 -4 -44 -9 -101 -12 -127 l-6 -48
42 0 41 0 -6 38 c-4 20 -11 53 -16 72 -12 48 -11 60 6 60 9 0 21 -23 33 -62
l18 -63 42 -3 c34 -3 42 -7 42 -23 0 -11 -7 -19 -17 -20 -15 0 -15 -2 2 -9 11
-5 23 -9 28 -9 4 -1 7 64 7 144 l0 145 -94 0 c-52 0 -97 -3 -99 -7z"/>
<path d="M5550 3671 l0 -149 34 -21 c46 -29 102 -92 128 -146 17 -34 28 -45
45 -45 36 0 28 24 -40 123 -66 96 -92 145 -88 162 1 6 -9 -1 -23 -14 -41 -39
-30 -9 12 32 40 39 69 52 37 17 -17 -19 -18 -22 -2 -37 15 -16 18 -15 35 0 25
23 31 22 64 -10 l28 -27 0 40 c0 36 -13 131 -26 197 l-6 27 -99 0 -99 0 0
-149z"/>
<path d="M5985 3488 c12 -59 16 -68 32 -68 12 0 14 8 9 38 -3 20 -6 43 -6 50
0 6 -9 12 -21 12 -18 0 -20 -4 -14 -32z"/>
<path d="M6074 3468 c6 -38 19 -57 37 -58 6 0 3 27 -7 78 -2 12 -12 22 -20 22
-14 0 -15 -7 -10 -42z"/>
<path d="M6155 3458 c4 -24 10 -46 14 -49 10 -10 103 -31 109 -25 10 11 -19
86 -36 95 -9 4 -34 11 -55 15 l-39 7 7 -43z"/>
<path d="M5279 3337 c-18 -12 -44 -38 -57 -57 -33 -49 -28 -142 11 -193 72
-95 217 -82 278 26 43 77 8 191 -71 232 -44 23 -121 19 -161 -8z m168 -38 c28
-27 53 -77 53 -110 0 -36 -32 -90 -64 -110 -118 -72 -253 58 -188 180 38 71
142 92 199 40z"/>
<path d="M5332 3289 c-75 -22 -92 -118 -31 -173 27 -24 38 -27 73 -23 55 8 86
44 86 101 0 33 -6 49 -26 70 -15 14 -30 26 -35 26 -4 0 -13 2 -21 4 -7 2 -28
0 -46 -5z"/>
<path d="M1027 3229 c-29 -17 -3 -39 39 -32 28 5 34 2 34 -12 0 -9 -9 -19 -20
-22 -28 -7 -25 -28 6 -42 35 -15 25 -36 -18 -37 -62 -1 -77 -24 -29 -44 40
-16 88 -4 108 27 16 24 16 28 1 54 -10 16 -13 31 -7 34 13 9 11 59 -3 73 -15
15 -86 15 -111 1z"/>
<path d="M1190 3134 l0 -106 60 4 c94 7 137 63 110 143 -15 44 -53 65 -120 65
l-50 0 0 -106z m110 46 c11 -11 20 -28 20 -38 0 -29 -29 -62 -56 -62 -23 0
-24 3 -24 60 0 53 2 60 20 60 11 0 29 -9 40 -20z"/>
<path d="M6185 3236 c-93 -41 -86 -182 11 -222 94 -39 191 63 150 160 -25 61
-101 90 -161 62z m119 -47 c36 -43 35 -91 -3 -130 -22 -21 -39 -29 -66 -29
-27 0 -44 8 -66 29 -38 39 -39 87 -3 130 21 26 33 31 69 31 36 0 48 -5 69 -31z"/>
<path d="M6183 3174 c-20 -20 -24 -31 -19 -57 8 -40 23 -55 63 -63 26 -5 37
-1 57 19 33 33 33 71 1 102 -31 32 -69 32 -102 -1z"/>
<path d="M3517 2164 c-19 -19 -6 -53 28 -73 42 -24 66 -18 109 28 35 36 28 40
-14 9 -25 -18 -35 -20 -67 -12 -27 6 -39 16 -43 32 -3 13 -8 20 -13 16z"/>
<path d="M3812 2333 c2 -10 10 -18 18 -18 8 0 16 8 18 18 2 12 -3 17 -18 17
-15 0 -20 -5 -18 -17z"/>
</g>
</svg>
